<?xml version="1.0" encoding="UTF-8" ?>
<!DOCTYPE svg PUBLIC "-//W3C//DTD SVG 1.1//EN" "http://www.w3.org/Graphics/SVG/1.1/DTD/svg11.dtd">
<svg width="1150pt" height="566pt" viewBox="0 0 1150 566" version="1.1" xmlns="http://www.w3.org/2000/svg">
<path fill="#fdfeff" d=" M 0.00 0.00 L 1150.00 0.00 L 1150.00 173.57 C 1133.57 173.54 1117.14 173.58 1100.72 173.55 C 1092.35 219.17 1084.60 264.91 1076.03 310.49 C 1067.47 264.90 1059.74 219.16 1051.35 173.54 C 1035.01 173.57 1018.68 173.59 1002.35 173.53 C 1002.15 238.94 1002.32 304.35 1002.27 369.76 C 1014.86 369.79 1027.46 369.75 1040.06 369.78 C 1040.18 333.85 1040.07 297.92 1040.11 261.99 C 1040.16 256.60 1039.83 251.19 1040.51 245.83 C 1042.51 249.96 1042.65 254.63 1043.44 259.08 C 1049.29 295.98 1055.02 332.90 1060.95 369.78 C 1071.03 369.76 1081.11 369.77 1091.19 369.78 C 1097.04 333.24 1102.76 296.68 1108.56 260.14 C 1109.36 255.31 1109.82 250.40 1111.30 245.72 C 1112.49 250.74 1111.93 255.92 1112.02 261.03 C 1112.05 297.29 1111.97 333.54 1112.06 369.80 C 1124.71 369.74 1137.35 369.77 1150.00 369.78 L 1150.00 430.84 C 887.33 430.83 624.65 430.83 361.98 430.84 C 362.00 475.89 361.84 520.95 362.06 566.00 L 0.00 566.00 L 0.00 0.00 Z" />
<path fill="#0273c7" d=" M 266.48 0.48 C 269.70 4.08 271.92 8.42 274.54 12.45 C 292.45 41.67 306.97 73.36 314.00 107.03 C 319.76 133.27 323.58 160.10 322.79 187.03 C 321.54 225.88 313.34 264.50 298.43 300.41 C 289.99 320.59 279.94 340.25 266.92 357.89 C 257.15 344.87 249.28 330.54 242.00 316.01 C 233.66 299.42 227.84 281.71 222.67 263.91 C 205.59 204.76 207.80 140.66 226.26 82.11 C 235.88 53.24 249.81 25.90 266.48 0.48 Z" />
<path fill="#fdfeff" d=" M 258.45 43.38 C 260.98 38.23 263.44 33.03 266.59 28.22 C 283.85 58.56 297.38 91.35 303.65 125.80 C 309.81 158.14 311.26 191.42 307.12 224.10 C 306.23 231.12 305.31 238.16 303.49 245.01 C 304.18 234.32 303.68 223.61 302.98 212.94 C 301.32 190.55 298.02 168.17 291.25 146.71 C 284.73 125.89 277.33 105.15 266.55 86.10 C 259.35 98.43 254.08 111.76 249.17 125.13 C 241.62 146.46 235.32 168.38 232.59 190.90 C 230.37 208.86 229.43 226.99 229.53 245.09 C 228.00 239.10 227.49 232.91 226.73 226.78 C 223.99 201.33 222.97 175.52 226.14 150.05 C 228.17 133.96 231.26 117.99 235.53 102.35 C 241.78 82.20 249.30 62.41 258.45 43.38 Z" />
<path fill="#0273c7" d=" M 361.72 173.58 C 385.80 173.55 409.88 173.54 433.97 173.58 C 433.94 181.70 433.96 189.82 433.95 197.94 C 422.50 197.95 411.05 197.94 399.59 197.95 C 399.57 255.21 399.56 312.48 399.60 369.74 C 387.00 369.82 374.39 369.71 361.79 369.80 C 361.60 304.40 361.75 238.99 361.72 173.58 Z" />
<path fill="#0273c7" d=" M 436.96 369.79 C 443.41 304.37 450.02 238.96 456.66 173.55 C 476.48 173.59 496.31 173.52 516.13 173.58 C 522.62 239.01 529.41 304.40 535.71 369.84 C 523.43 369.69 511.14 369.79 498.86 369.79 C 497.54 352.42 496.55 335.02 495.28 317.64 C 489.34 317.61 483.41 317.66 477.48 317.59 C 476.10 334.98 475.17 352.40 473.87 369.80 C 461.56 369.74 449.26 369.76 436.96 369.79 Z" />
<path fill="#0273c7" d=" M 558.87 182.02 C 563.45 176.33 570.90 173.85 578.00 173.63 C 586.34 173.45 594.68 173.62 603.02 173.56 C 611.76 173.55 621.37 172.82 628.89 178.12 C 636.79 183.50 639.22 193.61 639.66 202.61 C 640.00 214.75 639.72 226.91 639.82 239.06 C 639.96 246.69 638.23 254.97 632.47 260.40 C 627.65 265.09 620.73 266.74 614.17 266.67 C 614.17 267.13 614.16 268.06 614.16 268.52 C 620.69 268.51 627.77 269.62 632.73 274.25 C 638.17 279.21 639.76 286.92 639.80 293.99 C 639.83 308.00 639.82 322.02 639.81 336.04 C 639.69 344.72 638.81 354.14 633.21 361.18 C 628.44 367.23 620.50 369.61 613.06 369.73 C 603.02 369.84 592.98 369.72 582.94 369.78 C 574.93 370.02 566.08 368.77 560.23 362.78 C 553.62 356.06 552.37 346.10 552.19 337.10 C 552.12 325.08 552.20 313.07 552.15 301.06 C 564.78 301.01 577.41 301.05 590.04 301.04 C 590.11 313.41 589.96 325.78 590.09 338.15 C 589.76 341.86 593.33 345.11 597.01 344.34 C 600.36 343.79 602.25 340.26 601.97 337.07 C 601.95 321.70 602.05 306.32 601.92 290.94 C 602.14 286.32 599.38 281.62 594.71 280.51 C 587.10 278.63 579.16 279.79 571.41 279.51 C 571.37 272.31 571.37 265.11 571.41 257.91 C 577.62 257.86 583.84 258.03 590.05 257.83 C 593.36 257.63 597.13 257.12 599.37 254.40 C 601.88 251.19 601.86 246.88 601.98 243.00 C 601.95 230.32 602.01 217.64 601.96 204.97 C 602.29 201.52 599.62 197.81 595.97 197.95 C 592.75 197.81 589.90 200.68 590.11 203.91 C 589.93 214.72 590.12 225.53 590.04 236.33 C 577.41 236.33 564.78 236.40 552.14 236.29 C 552.23 225.86 552.08 215.42 552.22 204.98 C 552.49 196.99 553.67 188.43 558.87 182.02 Z" />
<path fill="#0273c7" d=" M 664.71 173.57 C 693.91 173.55 723.11 173.54 752.31 173.58 C 752.27 238.98 752.41 304.39 752.24 369.79 C 739.69 369.76 727.14 369.74 714.59 369.80 C 714.48 312.57 714.48 255.33 714.59 198.09 C 710.59 197.91 706.60 197.92 702.61 197.94 C 702.57 255.21 702.58 312.48 702.61 369.75 C 689.99 369.81 677.37 369.73 664.76 369.79 C 664.62 304.39 664.72 238.98 664.71 173.57 Z" />
<path fill="#0273c7" d=" M 777.19 173.62 C 797.13 173.49 817.08 173.58 837.02 173.57 C 844.49 173.57 852.57 175.57 857.65 181.42 C 863.52 188.11 864.68 197.43 864.88 205.99 C 864.96 224.00 864.89 242.00 864.91 260.01 C 864.86 268.36 865.34 276.89 862.99 285.01 C 861.56 290.18 858.67 295.10 854.24 298.24 C 849.30 301.82 843.05 303.00 837.06 303.02 C 829.72 303.06 822.39 303.00 815.06 303.03 C 815.01 325.29 815.18 347.54 814.98 369.80 C 802.39 369.73 789.81 369.80 777.22 369.76 C 777.20 304.38 777.26 239.00 777.19 173.62 Z" />
<path fill="#0273c7" d=" M 908.45 174.65 C 917.47 172.67 926.79 173.90 935.94 173.56 C 946.23 173.88 957.75 171.91 966.69 178.30 C 975.41 184.51 977.21 196.10 977.34 206.07 C 977.40 249.36 977.36 292.65 977.36 335.94 C 977.25 344.96 976.30 354.91 970.07 361.97 C 965.12 367.61 957.36 369.68 950.10 369.75 C 939.06 369.78 928.02 369.79 916.98 369.75 C 909.51 369.69 901.51 367.45 896.62 361.47 C 890.78 354.42 889.88 344.81 889.78 336.02 C 889.76 295.99 889.77 255.97 889.77 215.95 C 889.81 206.09 889.17 195.69 893.55 186.56 C 896.34 180.55 902.04 176.16 908.45 174.65 Z" />
<path fill="#0273c7" d=" M 1002.27 369.76 C 1002.32 304.35 1002.15 238.94 1002.35 173.53 C 1018.68 173.59 1035.01 173.57 1051.35 173.54 C 1059.74 219.16 1067.47 264.90 1076.03 310.49 C 1084.60 264.91 1092.35 219.17 1100.72 173.55 C 1117.14 173.58 1133.57 173.54 1150.00 173.57 L 1150.00 369.78 C 1137.35 369.77 1124.71 369.74 1112.06 369.80 C 1111.97 333.54 1112.05 297.29 1112.02 261.03 C 1111.93 255.92 1112.49 250.74 1111.30 245.72 C 1109.82 250.40 1109.36 255.31 1108.56 260.14 C 1102.76 296.68 1097.04 333.24 1091.19 369.78 C 1081.11 369.77 1071.03 369.76 1060.95 369.78 C 1055.02 332.90 1049.29 295.98 1043.44 259.08 C 1042.65 254.63 1042.51 249.96 1040.51 245.83 C 1039.83 251.19 1040.16 256.60 1040.11 261.99 C 1040.07 297.92 1040.18 333.85 1040.06 369.78 C 1027.46 369.75 1014.86 369.79 1002.27 369.76 Z" />
<path fill="#0273c7" d=" M 121.13 189.18 C 144.75 179.42 170.32 174.32 195.89 174.45 C 195.77 223.49 195.94 272.54 195.80 321.58 C 170.24 321.54 144.79 330.72 125.26 347.23 C 103.63 365.26 89.34 391.85 86.53 419.89 C 83.29 449.27 92.54 479.77 111.70 502.29 C 130.52 524.86 158.71 539.27 188.04 541.20 C 220.94 543.75 254.63 530.39 276.75 505.89 C 287.53 493.52 292.19 476.14 289.10 460.03 C 286.50 445.34 277.55 431.96 265.02 423.88 C 252.35 415.58 236.19 412.94 221.52 416.69 C 211.85 419.02 203.10 424.28 195.92 431.10 C 195.78 410.77 195.85 390.45 195.89 370.12 C 243.51 370.16 291.13 370.11 338.75 370.15 C 338.75 413.76 338.72 457.37 338.77 500.97 C 338.67 502.27 338.99 503.83 337.89 504.82 C 305.51 539.31 260.14 561.24 212.99 565.19 C 200.97 564.78 188.94 565.11 176.92 564.99 C 141.34 561.69 106.81 548.22 78.30 526.70 C 38.10 496.71 10.18 450.75 2.50 401.15 C 1.71 395.12 0.34 389.07 0.96 382.95 C 1.04 373.98 1.05 365.02 0.94 356.05 C 0.58 351.32 1.45 346.63 2.07 341.96 C 6.74 309.15 20.07 277.64 40.24 251.35 C 61.12 224.00 89.31 202.29 121.13 189.18 Z" />
<path fill="#fdfeff" d=" M 485.28 197.86 C 485.84 197.95 486.95 198.13 487.51 198.22 C 489.52 230.83 491.82 263.42 493.96 296.03 C 488.90 296.05 483.84 296.04 478.78 296.03 C 480.90 263.31 483.15 230.59 485.28 197.86 Z" />
<path fill="#fdfeff" d=" M 815.06 197.90 C 818.17 198.11 821.99 197.19 824.37 199.77 C 826.72 202.20 826.98 205.82 826.98 209.02 C 826.94 229.70 826.97 250.38 826.97 271.06 C 826.95 274.20 826.48 277.75 823.98 279.94 C 821.51 282.07 818.02 281.26 815.05 281.44 C 815.08 253.59 815.06 225.74 815.06 197.90 Z" />
<path fill="#fdfeff" d=" M 931.27 198.38 C 935.56 196.39 940.07 200.63 939.53 205.00 C 939.52 249.36 939.60 293.73 939.49 338.10 C 939.67 341.93 935.79 345.46 931.98 344.20 C 928.70 343.53 927.29 340.04 927.58 337.00 C 927.59 293.01 927.57 249.02 927.59 205.03 C 927.40 202.33 928.51 199.30 931.27 198.38 Z" />
<path fill="#fdfeff" d=" M 266.12 216.90 C 266.49 215.01 267.79 217.19 268.08 217.80 C 277.23 236.82 281.77 257.93 282.42 278.98 C 282.67 296.72 279.37 314.48 272.99 331.02 C 271.14 335.69 269.29 340.40 266.55 344.64 C 258.43 329.04 253.63 311.85 251.78 294.40 C 248.54 267.92 253.99 240.58 266.12 216.90 Z" />
<path fill="#0273c7" d=" M 361.98 430.84 C 624.65 430.83 887.33 430.83 1150.00 430.84 L 1150.00 566.00 L 362.06 566.00 C 361.84 520.95 362.00 475.89 361.98 430.84 Z" />
<path fill="#fdfeff" d=" M 560.35 474.30 C 565.22 470.26 572.00 469.64 578.07 470.34 C 583.18 470.90 588.36 473.42 590.98 478.02 C 593.28 481.77 593.13 486.32 593.20 490.56 C 588.51 490.61 583.82 490.61 579.14 490.54 C 579.04 488.14 579.39 485.66 578.67 483.34 C 577.07 480.44 572.46 479.86 570.22 482.29 C 569.05 483.58 569.29 485.43 569.20 487.03 C 569.23 495.68 569.21 504.34 569.21 512.99 C 569.26 515.10 569.23 517.53 570.81 519.16 C 573.24 521.27 578.05 520.35 578.75 516.94 C 579.38 513.50 579.06 509.98 579.20 506.51 C 583.78 506.59 588.37 506.59 592.96 506.51 C 593.29 512.72 593.57 519.62 589.79 524.94 C 586.47 529.55 580.42 530.86 575.05 530.96 C 569.67 531.05 563.65 530.30 559.69 526.27 C 556.04 522.50 555.24 516.99 555.21 511.95 C 555.19 503.61 555.19 495.26 555.20 486.92 C 555.12 482.26 556.64 477.34 560.35 474.30 Z" />
<path fill="#fdfeff" d=" M 717.47 476.49 C 723.33 468.74 735.68 468.11 743.12 473.88 C 748.81 478.26 749.94 486.68 747.18 493.03 C 746.02 495.72 743.33 497.12 741.12 498.82 C 744.08 500.73 747.83 502.13 749.20 505.70 C 751.14 510.80 751.18 516.76 749.13 521.85 C 747.00 527.06 741.54 530.06 736.16 530.68 C 729.69 531.58 722.15 530.55 717.69 525.31 C 714.52 521.72 713.91 516.82 713.49 512.25 C 717.80 512.10 722.11 512.13 726.43 512.19 C 726.72 514.27 726.72 516.48 727.64 518.42 C 728.92 520.91 732.58 521.09 734.70 519.60 C 736.49 517.91 736.43 515.18 736.61 512.91 C 736.59 510.19 736.54 506.66 733.83 505.18 C 732.08 504.54 730.21 504.58 728.40 504.39 C 728.41 501.02 728.42 497.66 728.36 494.30 C 730.09 494.04 731.93 494.16 733.58 493.46 C 736.49 490.98 736.41 486.44 735.17 483.12 C 734.17 479.97 729.10 479.55 727.61 482.47 C 726.68 484.56 726.65 486.89 726.38 489.13 C 722.09 489.13 717.81 489.14 713.53 489.11 C 713.86 484.69 714.63 480.06 717.47 476.49 Z" />
<path fill="#fdfeff" d=" M 382.32 471.37 C 386.77 471.38 391.23 471.38 395.68 471.38 C 396.09 483.64 395.27 495.87 393.35 507.98 C 397.91 495.96 401.38 483.55 405.51 471.38 C 409.95 471.38 414.39 471.39 418.84 471.34 C 418.96 490.74 418.80 510.13 418.92 529.53 C 414.45 529.62 409.98 529.60 405.52 529.58 C 405.56 524.05 405.35 518.53 405.65 513.02 C 406.00 506.90 407.50 500.92 407.80 494.80 C 403.76 506.39 399.95 518.06 395.86 529.62 C 391.34 529.57 386.83 529.58 382.31 529.60 C 382.30 510.19 382.29 490.78 382.32 471.37 Z" />
<path fill="#fdfeff" d=" M 427.07 471.33 C 431.70 471.40 436.32 471.39 440.95 471.34 C 441.11 478.85 440.96 486.35 441.06 493.86 C 444.09 493.84 447.13 493.83 450.17 493.84 C 450.24 486.34 450.15 478.84 450.23 471.35 C 454.86 471.39 459.49 471.39 464.12 471.35 C 464.25 490.77 464.36 510.21 464.06 529.63 C 459.46 529.57 454.85 529.56 450.24 529.63 C 450.14 521.37 450.23 513.12 450.19 504.87 C 447.13 504.86 444.08 504.86 441.03 504.87 C 440.98 513.13 441.14 521.39 440.92 529.65 C 436.31 529.56 431.70 529.55 427.10 529.66 C 426.93 510.22 426.98 490.77 427.07 471.33 Z" />
<path fill="#fdfeff" d=" M 472.37 471.37 C 479.93 471.43 487.49 471.31 495.05 471.41 C 499.29 471.47 503.67 473.18 506.26 476.66 C 511.24 483.44 509.71 494.51 501.89 498.52 C 504.93 500.19 507.88 502.56 508.79 506.08 C 510.32 511.63 510.01 518.02 506.92 523.00 C 504.14 527.35 498.86 529.28 493.89 529.50 C 486.72 529.73 479.55 529.51 472.38 529.60 C 472.36 510.19 472.36 490.78 472.37 471.37 Z" />
<path fill="#fdfeff" d=" M 517.19 471.35 C 528.03 471.40 538.88 471.38 549.72 471.36 C 549.76 475.05 549.76 478.75 549.70 482.44 C 543.51 482.38 537.32 482.35 531.13 482.46 C 531.18 486.25 531.17 490.04 531.17 493.83 C 536.71 493.84 542.26 493.82 547.81 493.86 C 547.80 497.52 547.80 501.18 547.81 504.85 C 542.26 504.87 536.71 504.84 531.17 504.88 C 531.17 509.45 531.15 514.02 531.22 518.60 C 537.18 518.64 543.16 518.38 549.12 518.66 C 550.59 521.75 549.39 526.05 549.71 529.61 C 538.87 529.58 528.03 529.55 517.19 529.63 C 517.11 510.20 517.12 490.77 517.19 471.35 Z" />
<path fill="#fdfeff" d=" M 598.04 471.34 C 609.34 471.40 620.65 471.41 631.95 471.33 C 632.12 475.02 632.11 478.71 632.09 482.40 C 628.71 482.40 625.33 482.40 621.96 482.36 C 621.59 498.11 621.94 513.86 621.78 529.62 C 617.53 529.57 613.28 529.57 609.05 529.63 C 608.72 513.87 609.08 498.11 608.85 482.35 C 605.20 482.41 601.54 482.41 597.89 482.39 C 597.86 478.70 597.85 475.01 598.04 471.34 Z" />
<path fill="#fdfeff" d=" M 637.59 471.48 C 648.41 471.23 659.24 471.48 670.07 471.34 C 670.24 475.01 670.24 478.70 670.21 482.38 C 664.07 482.71 657.78 481.82 651.74 482.80 C 651.53 498.39 651.73 514.00 651.65 529.60 C 646.96 529.59 642.28 529.63 637.60 529.51 C 637.64 510.17 637.66 490.82 637.59 471.48 Z" />
<path fill="#fdfeff" d=" M 681.17 471.34 C 686.71 471.39 692.26 471.41 697.81 471.33 C 702.25 490.72 706.45 510.17 710.76 529.59 C 706.20 529.58 701.65 529.57 697.10 529.64 C 696.26 525.76 695.58 521.85 694.90 517.94 C 691.32 517.91 687.73 517.91 684.16 517.96 C 683.59 521.83 682.99 525.69 682.41 529.56 C 677.75 529.60 673.09 529.59 668.44 529.58 C 672.75 510.18 676.83 490.73 681.17 471.34 Z" />
<path fill="#fdfeff" d=" M 758.14 471.35 C 762.59 471.39 767.04 471.37 771.50 471.39 C 771.42 476.88 771.57 482.37 771.40 487.85 C 771.06 494.59 769.82 501.24 769.33 507.97 C 773.55 495.84 777.26 483.55 781.31 471.37 C 785.77 471.38 790.22 471.38 794.68 471.38 C 794.67 490.79 794.68 510.19 794.68 529.60 C 790.22 529.58 785.76 529.58 781.31 529.60 C 781.33 524.39 781.17 519.18 781.39 513.97 C 781.67 507.53 783.22 501.24 783.67 494.83 C 779.48 506.36 775.78 518.06 771.68 529.62 C 767.17 529.57 762.66 529.57 758.15 529.63 C 758.06 510.20 758.08 490.77 758.14 471.35 Z" />
<path fill="#fdfeff" d=" M 868.17 471.35 C 872.61 471.39 877.06 471.37 881.51 471.40 C 881.46 475.93 881.51 480.46 881.48 484.99 C 881.45 492.73 879.90 500.34 879.35 508.04 C 883.51 495.87 887.30 483.58 891.34 471.37 C 895.79 471.38 900.24 471.38 904.70 471.37 C 904.69 490.78 904.73 510.19 904.68 529.60 C 900.23 529.58 895.78 529.58 891.34 529.60 C 891.34 524.72 891.25 519.84 891.37 514.97 C 891.57 508.19 893.16 501.57 893.73 494.84 C 889.46 506.33 885.82 518.06 881.70 529.61 C 877.19 529.58 872.68 529.57 868.18 529.63 C 868.10 510.20 868.12 490.78 868.17 471.35 Z" />
<path fill="#fdfeff" d=" M 912.98 471.35 C 917.22 471.45 921.47 471.21 925.71 471.46 C 926.60 472.71 926.02 474.50 926.24 475.97 C 926.21 482.06 926.13 488.15 926.27 494.25 C 929.70 486.67 932.69 478.91 936.12 471.34 C 941.13 471.40 946.14 471.38 951.15 471.36 C 947.20 480.02 942.47 488.31 938.57 496.99 C 942.29 508.02 947.25 518.62 951.14 529.61 C 946.25 529.58 941.37 529.59 936.50 529.58 C 934.38 523.10 932.46 516.56 930.24 510.12 C 924.29 514.68 926.63 523.07 926.21 529.57 C 921.75 529.60 917.29 529.60 912.84 529.58 C 912.92 510.17 912.66 490.75 912.98 471.35 Z" />
<path fill="#fdfeff" d=" M 965.55 471.39 C 971.15 471.38 976.76 471.34 982.37 471.43 C 986.53 490.84 991.15 510.16 995.09 529.62 C 990.54 529.58 985.99 529.58 981.45 529.59 C 980.76 525.77 980.06 521.95 979.48 518.12 C 975.83 517.86 972.18 517.85 968.55 518.09 C 968.05 521.95 967.46 525.80 966.78 529.64 C 962.18 529.56 957.58 529.57 952.98 529.63 C 957.01 510.18 961.42 490.81 965.55 471.39 Z" />
<path fill="#fdfeff" d=" M 999.69 471.47 C 1004.37 471.33 1009.05 471.38 1013.74 471.36 C 1013.86 486.98 1013.62 502.61 1013.85 518.22 C 1016.77 518.95 1019.86 518.46 1022.86 518.60 C 1023.09 502.84 1022.71 487.08 1023.06 471.33 C 1027.67 471.40 1032.28 471.40 1036.90 471.34 C 1037.07 487.09 1036.79 502.84 1037.05 518.59 C 1037.78 518.60 1039.23 518.61 1039.96 518.62 C 1039.89 526.29 1040.01 533.96 1039.89 541.63 C 1035.34 541.57 1030.80 541.58 1026.26 541.61 C 1026.23 537.60 1026.23 533.60 1026.23 529.61 C 1017.43 529.59 1008.64 529.56 999.85 529.63 C 999.54 510.24 999.85 490.85 999.69 471.47 Z" />
<path fill="#fdfeff" d=" M 1069.29 471.35 C 1073.73 471.39 1078.17 471.37 1082.61 471.38 C 1082.59 490.79 1082.61 510.19 1082.60 529.59 C 1078.15 529.58 1073.70 529.58 1069.26 529.61 C 1069.30 522.58 1068.90 515.52 1069.82 508.54 C 1070.38 503.98 1071.24 499.46 1071.70 494.89 C 1067.31 506.33 1063.75 518.07 1059.63 529.61 C 1055.11 529.58 1050.61 529.57 1046.11 529.63 C 1045.94 510.23 1046.12 490.82 1046.01 471.42 C 1050.48 471.35 1054.95 471.35 1059.42 471.41 C 1059.31 478.64 1059.74 485.90 1058.93 493.11 C 1058.42 497.81 1057.67 502.48 1057.37 507.19 C 1061.82 495.42 1065.17 483.25 1069.29 471.35 Z" />
<path fill="#fdfeff" d=" M 1095.13 476.17 C 1098.08 472.81 1102.62 471.33 1107.00 471.38 C 1113.97 471.32 1120.94 471.45 1127.91 471.33 C 1128.02 490.76 1128.02 510.20 1127.91 529.64 C 1123.29 529.56 1118.68 529.56 1114.07 529.64 C 1113.82 522.14 1114.05 514.63 1113.92 507.13 C 1113.23 507.16 1111.85 507.21 1111.16 507.24 C 1108.40 514.70 1105.70 522.18 1102.86 529.61 C 1097.91 529.57 1092.98 529.58 1088.04 529.61 C 1091.56 521.07 1095.27 512.60 1098.84 504.08 C 1089.74 498.28 1087.99 484.14 1095.13 476.17 Z" />
<path fill="#fdfeff" d=" M 824.61 471.40 C 829.13 471.36 833.65 471.36 838.17 471.40 C 838.14 473.23 838.14 475.07 838.13 476.91 C 843.42 476.88 849.26 476.94 853.55 480.53 C 859.57 485.40 860.89 493.77 860.77 501.08 C 860.65 507.98 859.05 515.79 853.18 520.14 C 848.93 523.42 843.32 523.43 838.20 523.35 C 838.17 525.42 838.14 527.49 838.14 529.57 C 833.64 529.60 829.14 529.60 824.65 529.58 C 824.63 527.50 824.63 525.44 824.63 523.38 C 819.35 523.43 813.52 523.39 809.25 519.83 C 803.37 515.15 801.99 507.07 802.00 499.98 C 802.00 492.73 803.69 484.43 810.00 479.99 C 814.23 476.86 819.68 476.95 824.70 476.87 C 824.66 475.04 824.62 473.22 824.61 471.40 Z" />
<path fill="#0273c7" d=" M 485.91 481.76 C 488.59 481.99 491.67 481.34 494.01 482.98 C 496.20 485.27 495.85 489.04 494.68 491.75 C 492.81 494.68 488.81 493.60 485.90 493.87 C 485.90 489.83 485.90 485.80 485.91 481.76 Z" />
<path fill="#0273c7" d=" M 685.59 507.49 C 686.84 498.99 687.75 490.43 689.40 481.99 C 690.51 490.49 691.80 498.96 693.04 507.44 C 690.55 507.46 688.07 507.46 685.59 507.49 Z" />
<path fill="#0273c7" d=" M 1106.08 484.16 C 1107.72 481.43 1111.23 481.94 1113.94 481.72 C 1113.96 486.79 1114.01 491.86 1113.87 496.94 C 1111.50 496.59 1108.56 497.19 1106.83 495.15 C 1104.31 492.18 1104.10 487.45 1106.08 484.16 Z" />
<path fill="#0273c7" d=" M 973.58 482.72 C 975.42 490.86 976.14 499.21 977.46 507.45 C 974.99 507.47 972.51 507.47 970.06 507.50 C 971.17 499.23 972.31 490.96 973.58 482.72 Z" />
<path fill="#0273c7" d=" M 816.20 491.21 C 817.32 487.57 821.41 487.24 824.61 487.27 C 824.67 495.84 824.61 504.41 824.64 512.99 C 821.63 512.99 817.80 512.90 816.47 509.60 C 814.23 503.83 814.36 497.07 816.20 491.21 Z" />
<path fill="#0273c7" d=" M 838.14 487.36 C 841.40 487.20 845.60 487.56 846.66 491.31 C 848.41 497.12 848.50 503.72 846.42 509.46 C 845.16 512.87 841.24 512.98 838.20 513.06 C 838.11 504.49 838.20 495.93 838.14 487.36 Z" />
<path fill="#0273c7" d=" M 485.90 504.24 C 488.80 504.44 492.53 503.70 494.57 506.33 C 496.32 509.23 496.21 513.02 495.23 516.17 C 493.72 519.85 489.07 518.91 485.91 519.22 C 485.90 514.23 485.90 509.23 485.90 504.24 Z" />
</svg>
