<svg xmlns="http://www.w3.org/2000/svg" width="150" height="30" viewBox="0 0 150 30"><defs><linearGradient id="a" x1="50%" x2="50%" y1="100%" y2="0%"><stop offset=".13%" stop-color="#006816"/><stop offset="100%" stop-color="#008831"/></linearGradient><linearGradient id="b" x1="50.001%" x2="50.001%" y1="99.996%" y2="-.004%"><stop offset=".13%" stop-color="#006816"/><stop offset="100%" stop-color="#008831"/></linearGradient></defs><g fill="none" fill-rule="evenodd"><path fill="url(#a)" d="M29.242 27.869a1.912 1.912 0 0 1-1.913 1.912H12.191a1.912 1.912 0 0 1-1.913-1.912V12.73c0-1.057.856-1.913 1.913-1.913H27.33c1.056 0 1.913.856 1.913 1.913v15.138h-.001z"/><path fill="#FBBA00" d="M18.986 7.354a1.916 1.916 0 0 1-1.918 1.913h-4.873a1.915 1.915 0 0 1-1.916-1.913v-4.88c0-1.057.858-1.914 1.916-1.914h4.873c1.06 0 1.918.856 1.918 1.913v4.881zM8.707 17.612a1.916 1.916 0 0 1-1.917 1.913H1.917A1.916 1.916 0 0 1 0 17.612V12.73c0-1.056.859-1.913 1.917-1.913H6.79c1.059 0 1.917.856 1.917 1.913v4.882zm0-10.258A1.916 1.916 0 0 1 6.79 9.267H1.917A1.916 1.916 0 0 1 0 7.354v-4.88C0 1.416.859.56 1.917.56H6.79c1.059 0 1.917.856 1.917 1.913v4.881z"/><path fill="url(#b)" d="M62.363 21.933h8.526v-3.507h-8.526V14.97h9.088v-4.146h-14.42v18.94h14.607V25.62h-9.275v-3.686zm82.144.663v.55c0 .72-.11 1.246-.341 1.583-.225.335-.564.553-1.01.65-.445.091-1.092.142-1.931.142-.792 0-1.407-.07-1.849-.204-.444-.14-.774-.358-.982-.662a2.464 2.464 0 0 1-.408-1.121c-.06-.453-.088-1.09-.088-1.93v-2.95c0-.99.07-1.725.213-2.213.137-.483.443-.833.91-1.047.467-.218 1.205-.33 2.204-.33.72 0 1.29.042 1.72.117.422.075.77.244 1.042.508.27.26.434.656.494 1.2v.729h5.493v-.73c0-1.586-.305-2.826-.91-3.736-.61-.901-1.5-1.544-2.688-1.92-1.182-.374-2.704-.561-4.556-.561-2.177 0-3.925.175-5.257.517-1.325.353-2.35 1.044-3.073 2.089-.726 1.04-1.08 2.567-1.08 4.573v4.89c0 1.672.222 3 .666 3.974.455.986 1.091 1.705 1.918 2.162.825.455 1.76.744 2.801.863 1.04.126 2.38.183 4.024.183 1.014 0 1.856-.023 2.513-.07a8.885 8.885 0 0 0 1.987-.37 5.779 5.779 0 0 0 1.839-.957c.444-.355.793-.726 1.043-1.121a4.53 4.53 0 0 0 .537-1.257c.118-.448.188-.886.223-1.324.024-.43.038-.99.038-1.675v-.551h-5.492v-.001zm-19.237-3.002c-.118.37-.333.622-.653.742-.321.127-.84.19-1.56.19h-3.653V15.22h3.652c.685 0 1.199.08 1.538.232.34.149.563.405.678.755.117.36.178.877.178 1.56 0 .85-.061 1.458-.18 1.828zm4.127-7.16c-.535-.55-1.227-.953-2.094-1.215-.867-.262-1.927-.395-3.177-.395h-10.048v18.94h5.325v-4.843h4.723c1.393 0 2.545-.125 3.424-.378.888-.247 1.571-.643 2.062-1.186.489-.54.835-1.26 1.032-2.161.198-.897.3-2.043.3-3.43 0-1.245-.126-2.308-.376-3.19-.252-.887-.637-1.596-1.171-2.142zm-26.732 6.523h-.244l-3.515-8.134h-6.05l6.878 13.79c-.13.35-.266.6-.414.759-.141.155-.362.259-.65.32-.293.05-.73.083-1.313.083-.799 0-1.385-.061-1.758-.177v4.09c1.023.153 1.91.233 2.671.233 1.058 0 1.955-.151 2.693-.44.731-.292 1.39-.76 1.976-1.412.58-.65 1.164-1.525 1.753-2.62l7.564-14.626h-6.152l-3.439 8.134zm-16.233 4.19c0 .719-.113 1.245-.342 1.582-.229.335-.563.553-1.012.65-.444.091-1.089.142-1.926.142-.791 0-1.411-.07-1.858-.204-.433-.14-.762-.358-.974-.662-.219-.306-.35-.679-.41-1.121-.063-.453-.087-1.09-.087-1.93v-2.95c0-.99.073-1.725.21-2.213a1.61 1.61 0 0 1 .911-1.047c.467-.218 1.203-.33 2.208-.33.717 0 1.287.042 1.714.117a1.95 1.95 0 0 1 1.043.508c.273.26.437.656.5 1.2v.729h5.49v-.73c0-1.586-.306-2.826-.91-3.736-.609-.901-1.505-1.544-2.687-1.92-1.187-.374-2.708-.561-4.563-.561-2.17 0-3.925.175-5.253.517-1.325.353-2.35 1.044-3.07 2.089-.723 1.04-1.085 2.567-1.085 4.573v4.89c0 1.672.222 3 .673 3.974.447.986 1.087 1.705 1.912 2.162.825.455 1.762.744 2.804.863 1.04.126 2.384.183 4.02.183a36.62 36.62 0 0 0 2.516-.07 8.858 8.858 0 0 0 1.988-.37 5.817 5.817 0 0 0 1.842-.957c.445-.355.79-.726 1.038-1.121.249-.398.43-.812.546-1.257a6.93 6.93 0 0 0 .21-1.324c.029-.43.048-.99.048-1.675v-.551h-5.495v.55h-.001zm-37.314-3.553c-.112.37-.332.622-.654.742-.318.127-.839.19-1.563.19h-3.646V15.22h3.646c.691 0 1.205.08 1.544.232.338.149.563.405.68.755.119.36.178.877.178 1.56-.001.85-.06 1.458-.185 1.828zm4.128-7.16c-.529-.55-1.229-.953-2.093-1.215-.87-.262-1.924-.395-3.181-.395H37.928v18.94h5.327v-4.843h4.717c1.402 0 2.549-.125 3.428-.378.889-.247 1.574-.643 2.059-1.186.49-.54.835-1.26 1.04-2.161.195-.897.296-2.043.296-3.43 0-1.245-.13-2.308-.375-3.19-.253-.887-.642-1.596-1.174-2.142z"/><path fill="#008E33" d="M27.097 7.3V2.96h2.316V1.645h-3.799V7.3zm4.721-2.758h1.01c.2 0 .35-.016.438-.053a.336.336 0 0 0 .182-.22c.032-.117.049-.298.049-.55 0-.207-.017-.357-.049-.462a.342.342 0 0 0-.19-.23c-.095-.044-.232-.068-.43-.068h-1.01v1.583zm0 2.759h-1.481V1.646h2.792c.347 0 .641.042.882.117.24.08.433.2.584.363.145.163.254.375.323.64a3.7 3.7 0 0 1 .107.952c0 .416-.028.758-.083 1.026a1.427 1.427 0 0 1-.29.64c-.13.166-.323.285-.57.357-.25.072-.562.115-.953.115h-1.31v1.445zm3.761-5.655h1.681l.977 2.428h.067l.951-2.428h1.712l-2.1 4.366a4.04 4.04 0 0 1-.488.782 1.524 1.524 0 0 1-.551.422 1.916 1.916 0 0 1-.743.13c-.215 0-.46-.02-.744-.07v-1.22c.103.036.26.052.488.052.162 0 .284-.009.365-.024.08-.016.145-.042.182-.093a.721.721 0 0 0 .113-.229l-1.91-4.115zm11.227 0V7.3h-1.488V2.96h-1.93V7.3h-1.48V1.646zm6.223 0V7.3h-1.48V2.96h-1.937V7.3h-1.48V1.646zm4.276 3.58l-.685-2.448h-.014l-.675 2.448h1.374zm.3 1.101H55.61l-.272.974h-1.542l1.666-5.655h2.253l1.69 5.655h-1.513l-.289-.974zm8.583-1.101l-.692-2.448h-.018l-.673 2.448h1.383zm.291 1.101h-1.992l-.276.974h-1.538l1.669-5.655h2.245L68.279 7.3h-1.513l-.287-.974zm4.011.973V2.96h2.318V1.645h-3.797V7.3zm4.723-2.758h1.011c.2 0 .348-.016.434-.053a.356.356 0 0 0 .183-.22c.035-.117.049-.298.049-.55a1.55 1.55 0 0 0-.049-.462.368.368 0 0 0-.185-.23 1.12 1.12 0 0 0-.432-.068h-1.011v1.583zm0 2.759h-1.484V1.646h2.793c.349 0 .645.042.884.117.242.08.435.2.582.363.148.163.255.375.323.64.07.263.106.578.106.952 0 .416-.026.758-.084 1.026-.056.268-.15.482-.284.64a1.118 1.118 0 0 1-.572.357 3.483 3.483 0 0 1-.954.116h-1.31V7.3zm6.561-1.271c.277 0 .491-.019.635-.056a.497.497 0 0 0 .307-.255c.067-.132.1-.335.1-.61V3.832c0-.21-.022-.377-.059-.495a.496.496 0 0 0-.173-.277.669.669 0 0 0-.307-.122 4.467 4.467 0 0 0-.503-.027c-.28 0-.498.023-.634.057a.463.463 0 0 0-.307.255c-.067.13-.101.329-.104.609v1.277c.003.276.038.478.102.61a.5.5 0 0 0 .309.255c.136.037.354.057.634.057m0 1.317a5.54 5.54 0 0 1-1.074-.09 2.135 2.135 0 0 1-.792-.306 1.489 1.489 0 0 1-.521-.636c-.123-.275-.185-.625-.185-1.048V3.676c0-.42.062-.774.185-1.042.122-.282.294-.49.521-.64a2.13 2.13 0 0 1 .792-.305 5.664 5.664 0 0 1 1.074-.087c.403 0 .765.028 1.07.087.305.058.57.158.794.305.22.15.393.358.523.64.119.268.178.623.178 1.042v1.592c0 .423-.059.773-.178 1.048-.123.273-.297.48-.523.636a2.13 2.13 0 0 1-.794.306 5.63 5.63 0 0 1-1.07.09m8.569-5.702V7.3h-1.48V2.96h-1.932V7.3h-1.48V1.646zm2.767 2.896h1.02c.199 0 .343-.016.434-.053a.343.343 0 0 0 .178-.22c.036-.117.052-.298.052-.55 0-.207-.016-.357-.052-.462a.347.347 0 0 0-.188-.23 1.082 1.082 0 0 0-.425-.068h-1.018v1.583zm0 2.759h-1.475V1.646h2.787c.353 0 .643.042.886.117.241.08.438.2.58.363.148.163.256.375.325.64.07.263.104.578.104.952 0 .416-.023.758-.082 1.026-.057.268-.149.482-.287.64a1.112 1.112 0 0 1-.573.357 3.447 3.447 0 0 1-.954.116H93.11V7.3zm5.698-4.417v1.033h2.372V4.96h-2.372v1.106h2.582V7.3h-4.06V1.646h4.01v1.238zm6.008.06l.004.773c0 .37-.013.684-.046.957-.03.27-.083.51-.149.724-.066.206-.153.41-.26.6h1.843V2.945h-1.392zM102.866 6a2.46 2.46 0 0 0 .317-.582c.083-.212.14-.46.177-.749a7.27 7.27 0 0 0 .054-1.037V1.646h4.284V6h.46v2.609h-1.412V7.3h-2.921v1.306h-1.396V6h.437zm11.189-4.354V7.3h-1.476V2.96h-1.937V7.3h-1.48V1.646zm2.774 2.896h1.009c.204 0 .348-.016.435-.053a.359.359 0 0 0 .181-.22c.037-.117.05-.298.05-.55 0-.207-.013-.357-.05-.462a.364.364 0 0 0-.191-.23c-.092-.044-.237-.068-.425-.068h-1.01v1.583zm0 2.759h-1.483V1.646h2.789c.348 0 .642.042.88.117.243.08.439.2.584.363.148.163.26.375.327.64.069.263.103.578.103.952 0 .416-.028.758-.081 1.026-.06.268-.152.482-.29.64a1.14 1.14 0 0 1-.569.357 3.472 3.472 0 0 1-.954.116h-1.306V7.3zm4.207-5.655h1.407v3.722h.051l1.731-3.722h1.954V7.3h-1.407V3.576h-.051L123.049 7.3h-2.013zm9.404 2.427h-1c-.449 0-.678-.197-.678-.59 0-.232.043-.397.13-.482.081-.083.234-.123.452-.123h1.095v1.195zm0 3.228h1.482V1.646h-2.845c-.438 0-.789.06-1.05.192-.264.13-.451.32-.571.584-.115.26-.173.6-.173 1.01 0 .305.03.565.1.781.067.217.167.393.313.54.144.142.337.27.582.378l-1.21 2.17h1.694l.98-1.99h.697v1.99zm5.225-4.341V7.3h-1.48V2.96h-1.423V1.645h4.401V2.96zm2.353-1.314h1.41v3.722h.051l1.736-3.722h1.948V7.3h-1.407V3.576h-.054L140.038 7.3h-2.02zM146.28.079c0 .198.049.329.146.4.097.067.275.103.525.103.255 0 .423-.037.524-.104.098-.068.15-.201.15-.4h.625c0 .325-.052.573-.152.739a.703.703 0 0 1-.424.333 2.65 2.65 0 0 1-.723.078c-.302 0-.543-.024-.722-.078a.724.724 0 0 1-.43-.333c-.095-.17-.143-.414-.143-.738h.624zm-1.773 1.567h1.405v3.722h.054l1.733-3.722h1.952v5.655h-1.412V3.576h-.049l-1.668 3.725h-2.015V1.646z"/></g></svg>